# xmcd CD database file
#
# Track frame offsets:
#	150
#	16047
#	28721
#	44615
#	60734
#	77717
#	93702
#	106135
#	119357
#	133218
#	145944
#	164250
#	180264
#	192746
#	205138
#	217843
#	230886
#	242515
#	256315
#	269493
#
# Disc length: 3924 seconds
#
# Revision: 0
# Processed by: cddbd v1.5.1PL2 Copyright (c) Steve Scherf et al.
# Submitted via: CDex 1.51
#
DISCID=210f5214
DTITLE=배호 - 배호 히트곡
DYEAR=2006
DGENRE=Blues
TTITLE0=두메산골
TTITLE1=황금의 눈
TTITLE2=파도
TTITLE3=돌아가는 삼각지
TTITLE4=안개낀 장춘단 공원
TTITLE5=비 내리는 명동거리
TTITLE6=오늘은 고백한다
TTITLE7=굿바이
TTITLE8=누가울어
TTITLE9=안녕
TTITLE10=안개속으로 가버린 사랑
TTITLE11=당신
TTITLE12=남의 속도 모르고
TTITLE13=능금빛 순정
TTITLE14=내 고향으로 날 보내주
TTITLE15=영시의 이별
TTITLE16=웃으며 가요
TTITLE17=마지막 잎새
TTITLE18=비 내리는 인천항 부두
TTITLE19=영월애가
EXTD=YEAR: 2006
EXTT0=
EXTT1=
EXTT2=
EXTT3=
EXTT4=
EXTT5=
EXTT6=
EXTT7=
EXTT8=
EXTT9=
EXTT10=
EXTT11=
EXTT12=
EXTT13=
EXTT14=
EXTT15=
EXTT16=
EXTT17=
EXTT18=
EXTT19=
PLAYORDER=
